<svg xmlns="http://www.w3.org/2000/svg" viewBox="0 0 220 22" fill="none">
  <defs>
    <style>
      @import url('https://fonts.googleapis.com/css2?family=Space+Grotesk:wght@300;700&amp;display=swap');
    </style>
  </defs>
  <!-- D Icon (copper stem + teal bowl, 0.95em height) -->
  <g transform="translate(0, 0.5) scale(0.0788)">
    <path fill="#D17848" d="M0,133.3V0h56.3h56.3l-0.1,8c-0.1,4.5-0.2,8.1-0.3,8.2c-0.1,0.1-21.4,0.2-47.3,0.3c-39.3,0.1-47.2,0.2-47.7,0.7c-0.5,0.4-0.6,9-0.6,116.7v116.3h47.9h47.9v8.1v8.2H56.2H0L0,133.3L0,133.3z"/>
    <path fill="#D17848" d="M44.2,133.5V43.8h34.1h34.1V52v8.2H87.2c-13.9,0-25.6,0.1-26,0.2l-0.8,0.2v73v73h26.2h26.2l-0.2,1.1c-0.1,0.6-0.2,4.4-0.2,8.3v7.3H78.3H44.2L44.2,133.5L44.2,133.5z"/>
    <path fill="#3AACA2" d="M111.4,258.4c0-4.5,0.1-8.1,0.3-8.1c2.6-0.1,11.5-0.9,15-1.4c38.6-5.4,70.5-29,86.1-63.7c11.5-25.6,14-55.3,7.1-83.4c-4-16.2-11-30.9-21.2-44.1c-3.2-4.1-12.7-13.7-17-17.1c-19-14.9-40.4-22.8-66.3-24.2l-4-0.2l0.1-8l0.1-8l3.6-0.1c6.2-0.2,19.9,1.7,28.7,3.9c15.9,4,31.8,11.3,44,20.4c7.6,5.6,17,14.6,22.6,21.6c15.9,19.8,25.8,44,28.9,70.8c0.8,6.4,1,20,0.5,26.7c-1.4,19.1-5.7,35.7-13.6,52c-6.4,13.2-14,23.9-23.9,33.9c-16.4,16.4-35.7,27.3-58.7,33.3c-8.9,2.3-20.5,3.9-27.9,3.9h-4.2L111.4,258.4L111.4,258.4z"/>
    <path fill="#3AACA2" d="M111.5,214.9l0.1-8.3l4.2-0.4c2.3-0.2,5.7-0.7,7.5-1c26.4-4.6,47.5-24.5,54.3-51.4c1.8-7.1,2.5-12.6,2.5-20.6c0-7.6-0.4-12.1-2-18.9c-4.6-20.6-17.7-37.7-35.7-46.7c-8.6-4.3-17-6.5-28.4-7.4l-2.6-0.2v-8.2v-8.2l4.9,0.2c17.7,0.8,34.4,7.1,48.3,18.3c6.3,5,13.3,13.1,18,20.5c2.3,3.6,6.4,12,8.1,16.3c4,10.4,5.8,21.2,5.8,34.1c0,8.6-0.5,13.2-2,21c-5.3,26.2-22,48.5-45.1,59.9c-10.5,5.2-21.8,8.2-33.9,8.9l-4,0.2L111.5,214.9L111.5,214.9z"/>
  </g>
  <!-- Wordmark with light "to" -->
  <text y="17" font-family="'Space Grotesk', sans-serif" letter-spacing="-0.2" fill="#0C0C0C">
    <tspan x="30" font-weight="700" font-size="18">Docs </tspan><tspan font-weight="300" font-size="18" opacity="0.7">to </tspan><tspan font-weight="700" font-size="18">Design</tspan>
  </text>
</svg>
