<?xml version="1.0" encoding="utf-8"?>
<!-- Generator: Adobe Illustrator 30.1.0, SVG Export Plug-In . SVG Version: 9.03 Build 0)  -->
<svg version="1.0" id="Layer_1" xmlns="http://www.w3.org/2000/svg" xmlns:xlink="http://www.w3.org/1999/xlink" x="0px" y="0px"
	 viewBox="0 0 187.6 89.8" style="enable-background:new 0 0 187.6 89.8;" xml:space="preserve">
<style type="text/css">
	.st0{fill:#FFFFFF;}
</style>
<g>
	<path class="st0" d="M27.1,88.9L27,66.4c0-1.6-0.3-3.2-0.9-4.5c-1.2-2.8-4-4.1-6.9-3.9c-4.8,0.4-6.7,4.3-6.8,8.7l0,22.2l-11.8,0
		l0-40.4l11,0l0.1,5.1c2.8-4.1,7.2-6.1,12-6c4.3,0.1,8.2,1.8,10.9,5.1L58,20.1l-14.4-20l13.7,0l8,11.7l8-11.7l13.4,0L72.4,19.9
		l14.8,20.6l-13.9,0.1l-8.1-12L53.7,44.5l-13,18.1c-1.2,1.7-1.9,3.6-1.8,5.7l0,20.5L27.1,88.9z"/>
	<path class="st0" d="M101.9,75.8l6.9,6.2c-2.7,3.2-6.2,5.7-10.3,6.8c-9.6,2.7-20.7,0.1-26.1-8.8c-2.5-4.1-3.3-8.7-2.9-13.5
		c0.9-11.5,9.9-19.2,21.4-18.9c4.2,0.1,8.1,1.2,11.5,3.6c6.8,4.8,9,13,7.9,21.1l-29.2,0c0.5,3.4,2.7,6.1,5.9,7.2
		C92.3,81.3,97.7,80,101.9,75.8z M99.1,64.6c-0.4-4.7-4.1-7.8-8.7-7.8c-4.6,0-8.6,2.8-9.4,7.8L99.1,64.6z"/>
	<path class="st0" d="M39.6,0l0,40.5l-11.4,0l-0.1-5.1c-3,4-7.3,6-12.3,5.9c-4.8-0.2-9.4-2.1-12.3-6C1.1,32,0.3,28.2,0,24.1L0,0
		l11.9,0l0,22c0,4.2,2.3,7.9,6.8,8.4c4.8,0.5,8.6-2.8,9-7.7l0-22.7L39.6,0z"/>
	<path class="st0" d="M128.4,89.8c-8.2,0.4-15.2-4-15.2-12.5c0-4.2,1.8-7.9,5.4-10.1c5.7-3.5,13.6-3.8,20.2-2.3
		c0.3-4-1.4-6.7-5.3-7.5c-4.5-0.8-8.9,0.6-12.3,3.9l-6.4-6.7c3.1-3.5,6.8-5.3,11.1-6.4c7.8-1.5,18.3-0.3,22.4,7.4
		c1.4,2.6,2.1,5.5,2.1,8.5l0,24.8l-10.9,0l-0.3-4.4C136.4,87.8,132.7,89.6,128.4,89.8z M138.6,76.4c0.4-1.3,0.2-3,0.2-4.5
		c-3.7-0.9-12.7-1.6-14.1,3.1c-0.5,1.8-0.2,3.6,1.1,4.8C128.9,82.7,136.8,81.7,138.6,76.4z"/>
	<path class="st0" d="M186.1,82.8c-4.3,7.6-16,8.1-23.6,5.7c-3.4-1.1-6.3-3-8.8-5.7l6.3-7c1.9,2,4,3.4,6.5,4.4
		c2.8,1,9.3,1.5,9.6-2.3c0.3-3.5-4.8-4.2-8.1-5c-6.4-1.6-12.5-4.3-12.7-11.9c-0.3-9.2,8.3-13.6,16.5-13.3c5.5,0,10.7,1.8,14.8,5.8
		l-6.1,7c-2.4-2.3-5.1-3.7-8.2-4c-2.3-0.2-5.7,0.5-5.7,3.2c-0.1,5.5,15.6,3,19.8,11.7C188.2,74.9,188,79.3,186.1,82.8z"/>
	<path class="st0" d="M53.7,88.9l0-22.2c-0.1-1.8-0.4-3.4-1-5c-1-1.9-2.5-3.1-4.8-3.6l7-9.8c7.7,2.4,10.4,9.2,10.5,16.7l0,23.9
		L53.7,88.9z"/>
</g>
</svg>
