<?xml version="1.0" encoding="UTF-8"?>
<svg id="Layer_1" xmlns="http://www.w3.org/2000/svg" version="1.1" viewBox="0 0 120.8 128">
  <!-- Generator: Adobe Illustrator 30.4.0, SVG Export Plug-In . SVG Version: 2.1.4 Build 226)  -->
  <g id="RbfCym">
    <g>
      <path d="M66.2,76l11.1,10.2v-17.6s-7.5-7.3-7.5-7.3l37.4-32.6v86.1s13.3,12,13.3,12l.2.2s0-.2,0-.4V0c-16.3,13.4-32.2,26.8-48,40.5l-12,10.4L17.6,14.4,7,5.7,0,0v127s7.3-6.4,7.3-6.4l6.3-5.8V28.6s38,32.5,38,32.5l-8.1,7.8v17.6s13.3-12.1,13.3-12.1l3.9-3.7,5.5,5.2ZM94,48l-12.8,11v45.6c-.2,6.1-4.8,10.7-10.8,10.7h-20.4c-5.9,0-10.4-4.8-10.5-10.6v-45.8s-12.8-11.1-12.8-11.1v56.7c.2,4.9,1.3,9.5,4.1,13.5,4.1,6,10.7,9.9,18.1,9.9h22.9c6.2,0,11.9-2.8,16.1-7.4s6-10,6.1-16.1v-56.5Z"/>
      <path d="M66.2,76l-5.5-5.2-3.9,3.7-13.3,12.1v-17.6s8.1-7.8,8.1-7.8L13.6,28.6v86.2s-6.3,5.8-6.3,5.8L0,127V0s7,5.7,7,5.7l10.6,8.7,43.2,36.5,12-10.4C88.6,26.8,104.5,13.4,120.8,0v126.5c0,.2,0,.4,0,.4l-.2-.2-13.3-12V28.7s-37.4,32.6-37.4,32.6l7.5,7.3v17.6s-11.1-10.2-11.1-10.2Z"/>
      <path d="M94,48v56.5c-.1,6-2,11.7-6.1,16.1s-9.9,7.4-16.1,7.4h-22.9c-7.4,0-14-3.9-18.1-9.9s-3.9-8.6-4.1-13.5v-56.7s12.8,11.1,12.8,11.1v45.8c.1,5.9,4.6,10.6,10.5,10.6h20.4c6.1,0,10.7-4.6,10.8-10.6v-45.6s12.8-11,12.8-11Z"/>
    </g>
  </g>
</svg>