<?xml version="1.0" encoding="UTF-8"?>
<svg id="Layer_1" xmlns="http://www.w3.org/2000/svg" version="1.1" viewBox="0 0 512 93.7">
  <!-- Generator: Adobe Illustrator 30.1.0, SVG Export Plug-In . SVG Version: 2.1.1 Build 136)  -->
  <path d="M236.8,26.1l-25.5,38.5c-.6.2-1.2.2-1.9,0l-25.4-38.5v65.8s-18.8,0-18.8,0V0s21.5,0,21.5,0l23.7,35.4L233.9,0h21.7s0,92,0,92h-18.8s0-65.9,0-65.9Z"/>
  <path d="M56.9,0h19.1s0,56,0,56c0,5.6-1,11-3,16.2-3.2,8.4-9.6,14.8-17.9,18.3-9.9,4.1-22.7,4.2-32.8.5s-15.8-10-19.3-18.8S.1,61.6,0,55.9V0s19,0,19,0v55.3c.2,3.7.6,7,2,10.4,1.9,4.7,5.7,8.1,10.6,9.4s8.4,1.1,12.6,0,8.8-4.7,10.7-9.5,1.8-6.7,2-10.4V0Z"/>
  <path d="M412.6,92.1v-9.5c-5.2,6.9-12.7,10.8-21.4,11.2-16.3.6-28.8-10.2-32.7-25.6-2.1-8.1-2.1-16.5,0-24.5,4.1-15.5,16.9-26.4,33.3-25.4s15.6,4.4,20.5,11.1c.2.4.3.3.4,0v-9.5s18.8,0,18.8,0v72.3c-.1,0-18.9,0-18.9,0ZM394.6,75.8c7.5-.2,13.9-4.6,16.5-11.5s2-11.4,0-16.8-9.4-11.5-17-11.5-13.9,4.3-16.6,11.3-2.1,11.7,0,17.2,9.4,11.5,17.2,11.3Z"/>
  <polygon points="148.7 92 126.3 92.1 107.2 60.4 88.5 92.1 66.2 92 95.9 44.3 67.7 0 90 0 107.7 29.4 125.6 0 147.9 0 119.2 45.8 148.7 92"/>
  <path d="M317.2,76.7c3.7-1.5,6.5-4,8.1-7.6h19.4c-3.5,11.5-11.7,19.6-23.4,23-8.1,2.2-16.6,2.2-24.6-.2-11.6-3.5-20.4-12.3-23.8-23.9s-2.3-17.4.6-25.7c3.8-10.8,12.3-19,23.3-22.4,7.5-2.3,15.5-2.4,23.1-.3s16.8,8.6,21.3,17c4,7.4,5.4,15.8,4.7,24.3h-55.4c.7,7.4,4.5,13.6,11.6,16.2,4.9,1.6,10.1,1.6,15-.3ZM325.9,47c-1-3.9-2.9-7-5.7-9.5-3.2-2.7-7-3.9-11.2-3.9-8.9,0-15.2,5.1-17.6,13.4h34.5Z"/>
  <path d="M503.8,86.9c-9.3,7-23.4,8-34.4,5.8s-8.4-2.4-12.2-4.7c-7.2-4.3-12-11.2-13.4-19.7h19c.8,3.4,2.8,6,5.8,7.6,1.7.8,3.4,1.3,5.3,1.7,4.8.6,18.9,1.8,18.6-5.8s-5.4-5-8.9-5.8l-13.9-3.4c-3.8-.9-7.3-2.2-10.9-3.7-9.1-4-12.9-9.9-11.6-20.1s4.2-11.6,9.4-15.1c8.6-5.7,21.2-6.6,31.1-4.9s21,9.8,23.3,22.4h-19c-1.4-4.5-4.8-6.2-9.2-7-4.4-.6-11.2-.7-14.9,1.9s-2.6,3.4-1.7,5.3,6.3,3.3,8.7,3.8l14.2,3.4c3.5.9,6.8,2,10.2,3.4,6.2,2.6,11.2,6.6,12.3,13.6s-1.3,16.1-7.9,21.1Z"/>
</svg>