<svg width="24" height="16" viewBox="0 0 24 16" fill="none" xmlns="http://www.w3.org/2000/svg">
<path d="M6.98058 0.47998C7.67331 0.47998 8.31275 0.533267 8.89891 0.693128C9.48507 0.799702 9.96465 1.01285 10.3909 1.27928C10.8172 1.54572 11.137 1.91873 11.3501 2.39831C11.5633 2.87789 11.6698 3.46405 11.6698 4.10349C11.6698 4.8495 11.51 5.48895 11.137 5.96853C10.8172 6.44811 10.2844 6.87441 9.64493 7.19413C10.5508 7.46056 11.2435 7.94014 11.6698 8.57959C12.0961 9.21903 12.3626 10.0183 12.3626 10.9242C12.3626 11.6702 12.2027 12.3097 11.9363 12.8425C11.6698 13.3754 11.2435 13.855 10.764 14.1747C10.2844 14.4944 9.69821 14.7609 9.05877 14.9207C8.41933 15.0806 7.77988 15.1872 7.14044 15.1872H0V0.47998H6.98058ZM6.55429 6.44811C7.14044 6.44811 7.62002 6.28825 7.99303 6.02182C8.36604 5.75538 8.5259 5.2758 8.5259 4.68964C8.5259 4.36992 8.47261 4.0502 8.36604 3.83705C8.25947 3.62391 8.09961 3.46405 7.88646 3.30418C7.67331 3.19761 7.46016 3.09104 7.19373 3.03775C6.92729 2.98446 6.66086 2.98446 6.34114 2.98446H3.2505V6.44811H6.55429ZM6.71415 12.736C7.03387 12.736 7.35359 12.6827 7.62002 12.6294C7.88646 12.5761 8.15289 12.4695 8.36604 12.3097C8.57919 12.1498 8.73905 11.9899 8.89891 11.7235C9.00548 11.4571 9.11206 11.1374 9.11206 10.7643C9.11206 10.0183 8.89891 9.48546 8.47261 9.11245C8.04632 8.79273 7.46016 8.63287 6.76743 8.63287H3.2505V12.736H6.71415ZM16.9985 12.6827C17.4248 13.109 18.0643 13.3221 18.9168 13.3221C19.503 13.3221 20.0359 13.1623 20.4622 12.8958C20.8885 12.5761 21.1549 12.2564 21.2615 11.9367H23.8725C23.4462 13.2155 22.8068 14.1214 21.9542 14.7076C21.1016 15.2404 20.0892 15.5602 18.8636 15.5602C18.011 15.5602 17.2649 15.4003 16.5722 15.1339C15.8795 14.8674 15.3466 14.4944 14.867 13.9616C14.3875 13.482 14.0144 12.8958 13.8013 12.2031C13.5349 11.5104 13.4283 10.7643 13.4283 9.91176C13.4283 9.11245 13.5349 8.36644 13.8013 7.67371C14.0677 6.98098 14.4407 6.39482 14.9203 5.86195C15.3999 5.38237 15.9861 4.95608 16.6255 4.68964C17.3182 4.42321 18.011 4.26335 18.8636 4.26335C19.7694 4.26335 20.5687 4.42321 21.2615 4.79622C21.9542 5.16923 22.4871 5.59552 22.9134 6.23496C23.3397 6.82112 23.6594 7.51385 23.8725 8.25986C23.9791 9.00588 24.0324 9.7519 23.9791 10.6045H16.2525C16.2525 11.4571 16.5722 12.2564 16.9985 12.6827ZM20.3556 7.08755C19.9826 6.71454 19.3964 6.5014 18.7037 6.5014C18.2241 6.5014 17.8511 6.60797 17.5314 6.76783C17.2117 6.92769 16.9985 7.14084 16.7854 7.35399C16.5722 7.56713 16.4656 7.83357 16.4124 8.1C16.3591 8.36644 16.3058 8.57959 16.3058 8.79273H21.1016C20.995 7.99343 20.7286 7.46056 20.3556 7.08755ZM15.6663 1.49243H21.6345V2.93118H15.6663V1.49243Z" fill="#3F4B66"/>
</svg>
