<?xml version="1.0" encoding="UTF-8"?>
<svg xmlns="http://www.w3.org/2000/svg" viewBox="0 0 563.1 128" width="563" height="128" fill="#7fc8ff">
  <polygon points="343.8 21.6 317.5 58.1 292.4 21.6 276.7 21.6 276.7 103.1 290.6 103.1 290.7 45.6 317.3 83.1 343.9 46.4 344 103.1 359.1 103.1 359 21.6 343.8 21.6"/>
  <path d="M406.2,38.9c-10-.9-19.9,1.9-27.2,8.8-7.7,7.2-11,17.3-10,27.8,1.2,12.7,9.2,23.1,21.2,27.4,14,5,31.2,1.7,40.5-10.2l-9.5-9c-4.9,5.5-11.1,8.7-18.2,8.6-9.4.2-17.3-6.1-19-15.5h49.4c2.4-18.6-8.2-36.2-27.2-37.9ZM384,66.2c1.3-5.6,4.6-10.1,8.7-12.4,5.4-3.1,11.7-3.4,16.8-.9,5.1,2.5,8.4,7,9.6,13.3h-35.1Z"/>
  <path d="M492.4,44.8c-11.2-9.7-32.9-6.6-45.6,1.9l6.4,10.9c8.4-4.8,20.8-7.7,28.5-2.6,3.7,2.5,5,6.7,4.5,11.4-11.5-3.6-31-3.3-39.3,6-4.1,4.7-5.2,11-3.7,17.4,1.2,5,4.9,9.7,10.3,12.5,4.4,2.3,9.1,2.9,13.9,2.7,7.6-.2,14.1-3.4,18.8-9.5l.2,7.8h14.4s0-40.5,0-40.5c0-7-3.2-13.6-8.3-18ZM480.6,90c-5.3,3.9-12.4,4.4-18.2,1.8-3.1-1.4-4.9-4.2-5-7.2-.1-3.3,1.6-5.9,4.5-7.7,7.2-3.4,16.3-2.3,24.2-.6,1,5.4-.9,10.3-5.5,13.6Z"/>
  <path d="M561.9,78.3c-1.7-4.4-5.4-8-9.9-9.4l-11.5-3.5-9.5-3.1c-2.1-.7-3.5-2.9-3.5-4.9,0-1.9,1.1-3.9,3.1-4.8,7.1-3.4,18.1.2,25,4.8l7.1-10.2c-10.9-8.7-27.8-11.2-39.9-4.8-7.1,3.8-10.9,10.9-9.9,19,1.3,10.2,10.9,13.3,19.8,15.9l12.3,3.7c1.8.5,3.3,2.4,3.6,3.8.9,4.4-3,7.2-8.1,7.9-8.7.6-16.8-2.4-23.5-8.5l-7.6,10.6c13.1,11.3,38.4,15,49.4,2,4.4-5.1,5.5-12.3,3-18.6Z"/>
  <path d="M140.8,0h-44.2s0,75.4,0,75.4c-1.3,23.8-26.1,23.6-44.2,22.1-11.7-.8-20.2-9.6-20.9-21.2V0S0,0,0,0c0,0,0,81.9,0,81.9.6,16.2,8.7,30.5,22.6,38.7,13.5,9.9,40.3,6.3,56,6.9,27.4,0,50.8-24.3,49.9-51.6,0,0,0-45.2,0-45.2l37.1,39.7c-10.4,10.8-43.2,46-53.9,57.5h39.7c12.1-12.8,43.1-45.5,54.7-58C198.1,61.7,149.7,9.5,140.8,0Z"/>
  <polygon points="189.6 93.9 221.1 128 260.7 127.9 209.1 73.1 189.6 93.9"/>
  <path d="M206.2,63.7h0c1.2,1.3,2.3,2.5,3.3,3.6h0S273.2,0,273.2,0h-6.7l-60.3,63.7Z"/>
  <path d="M200.5,57.8c1.1,1.2,2.2,2.3,3.2,3.4h0S261.6,0,261.6,0h-6.2l-54.8,57.7h0Z"/>
  <path d="M194.9,51.8c1.1,1.2,2.2,2.3,3.2,3.4h0c0,0,19.6-21.4,19.6-21.4L250.2,0h-6l-49.2,51.7h0Z"/>
  <path d="M189.3,45.8c1.1,1.1,2.1,2.3,3.2,3.4h0C192.5,49.1,239.3,0,239.3,0h-6.3l-43.6,45.7h0Z"/>
</svg>
