<?xml version="1.0" encoding="UTF-8"?>
<svg xmlns="http://www.w3.org/2000/svg" viewBox="0 0 532.5 128" width="533" height="128" fill="#fff">
  <path d="M179.1,95.8c-16.6,0-26.7-9.3-26.7-27.4v-35.2h13.6v34.9c0,10,5,15.2,13.3,15.2s13.3-5,13.3-14.8v-35.3h13.6v34.8c0,18.7-10.5,27.8-27.1,27.8Z"/>
  <path d="M257.6,94.8l-13.8-21.1-13.9,21.1h-15.4l21.5-31.4-20.6-30.3h15.9l13,20,13-20h15.4l-20.6,30.1,21.5,31.5h-15.9Z"/>
  <path d="M331.8,94.8v-40.3l-17.4,26.3h-.4l-17.2-26.1v40h-13.3v-61.7h14.6l16.2,26.1,16.2-26.1h14.6v61.7h-13.5Z"/>
  <path d="M360.1,94.8v-61.7h46.5v12.1h-33v12.5h29.1v12.1h-29.1v13h33.5v12.1h-47Z"/>
  <path d="M465.1,94.8l-5.6-13.8h-26.1l-5.6,13.8h-13.8l26.4-62.1h12.5l26.4,62.1h-14.2ZM446.4,49l-8.2,20h16.4l-8.2-20Z"/>
  <path d="M509.9,95.7c-9.3,0-18.8-3.3-26.2-9.9l8-9.6c5.6,4.6,11.4,7.5,18.4,7.5s8.9-2.2,8.9-5.8v-.2c0-3.4-2.1-5.2-12.4-7.8-12.4-3.2-20.4-6.6-20.4-18.9v-.2c0-11.2,9-18.6,21.6-18.6s16.7,2.8,22.9,7.8l-7,10.2c-5.5-3.8-10.8-6.1-16-6.1s-7.9,2.4-7.9,5.4v.2c0,4.1,2.6,5.4,13.3,8.1,12.5,3.3,19.6,7.8,19.6,18.5v.2c0,12.2-9.3,19.1-22.6,19.1Z"/>
  <path d="M66.2,76l11.1,10.2v-17.6s-7.5-7.3-7.5-7.3l37.4-32.6v86.1s13.3,12,13.3,12l.2.2s0-.2,0-.4V0c-16.3,13.4-32.2,26.8-48,40.5l-12,10.4L17.6,14.4,7,5.7,0,0v127s7.3-6.4,7.3-6.4l6.3-5.8V28.6s38,32.5,38,32.5l-8.1,7.8v17.6s13.3-12.1,13.3-12.1l3.9-3.7,5.5,5.2ZM94,48l-12.8,11v45.6c-.2,6.1-4.8,10.7-10.8,10.7h-20.4c-5.9,0-10.4-4.8-10.5-10.6v-45.8s-12.8-11.1-12.8-11.1v56.7c.2,4.9,1.3,9.5,4.1,13.5,4.1,6,10.7,9.9,18.1,9.9h22.9c6.2,0,11.9-2.8,16.1-7.4s6-10,6.1-16.1v-56.5Z"/>
  <path d="M66.2,76l-5.5-5.2-3.9,3.7-13.3,12.1v-17.6s8.1-7.8,8.1-7.8L13.6,28.6v86.2s-6.3,5.8-6.3,5.8L0,127V0s7,5.7,7,5.7l10.6,8.7,43.2,36.5,12-10.4C88.6,26.8,104.5,13.4,120.8,0v126.5c0,.2,0,.4,0,.4l-.2-.2-13.3-12V28.7s-37.4,32.6-37.4,32.6l7.5,7.3v17.6s-11.1-10.2-11.1-10.2Z"/>
  <path d="M94,48v56.5c-.1,6-2,11.7-6.1,16.1s-9.9,7.4-16.1,7.4h-22.9c-7.4,0-14-3.9-18.1-9.9s-3.9-8.6-4.1-13.5v-56.7s12.8,11.1,12.8,11.1v45.8c.1,5.9,4.6,10.6,10.5,10.6h20.4c6.1,0,10.7-4.6,10.8-10.6v-45.6s12.8-11,12.8-11Z"/>
</svg>
