<?xml version="1.0" encoding="UTF-8"?>
<svg id="Layer_1" xmlns="http://www.w3.org/2000/svg" version="1.1" viewBox="0 0 696.9 128">
  <!-- Generator: Adobe Illustrator 30.1.0, SVG Export Plug-In . SVG Version: 2.1.1 Build 136)  -->
  <defs>
    <style>
      .st0 {
        fill: #fff;
      }
    </style>
  </defs>
  <path class="st0" d="M321,125.7V35.7s-34.9,52.6-34.9,52.6c-.9.3-1.6.3-2.6,0l-34.7-52.6v89.9s-25.7,0-25.7,0V0S252.6,0,252.6,0l32.3,48.3L317.1,0h29.6s0,125.7,0,125.7h-25.7Z"/>
  <path class="st0" d="M561.2,125.7v-13c-7.1,9.4-17.4,14.8-29.2,15.2-22.2.8-39.3-14-44.7-35s-2.8-22.5,0-33.5c5.6-21.1,23.1-36.1,45.5-34.7,11.5.7,21.6,6.3,28.4,15.8v-13.7c0,0,25.7,0,25.7,0l-.2,98.8h-25.6ZM536.6,103.5c10.3-.2,19-6.2,22.6-15.7,2.8-7.3,2.8-15.6,0-22.9-3.8-9.8-12.9-15.8-23.3-15.8-10.2,0-19,5.9-22.7,15.5-2.9,7.5-2.9,16,0,23.5,3.8,9.8,12.9,15.7,23.5,15.5Z"/>
  <path class="st0" d="M430.9,104.8c5-2.1,8.9-5.5,11.1-10.4h26.5c-4.8,15.7-16,26.7-31.9,31.4-11,3-22.7,3-33.6-.3-15.8-4.8-27.9-16.9-32.5-32.7-3.4-11.4-3.1-23.8.9-35.1,5.2-14.8,16.8-26,31.8-30.5,10.2-3.1,21.2-3.3,31.5-.5s22.9,11.7,29.1,23.2c5.5,10.1,7.3,21.6,6.5,33.2h-75.7c.9,10.1,6.2,18.6,15.9,22.1,6.7,2.2,13.8,2.2,20.5-.4ZM442.8,64.2c-1.3-5.3-3.9-9.6-7.8-13-4.3-3.7-9.6-5.3-15.3-5.3-12.1,0-20.8,7-24,18.3h47.1Z"/>
  <path class="st0" d="M696.1,102.7c-5.6,24-37.3,28-57.4,23.9-17.8-3.8-31.9-14.8-34.9-33.3h26c1.1,4.6,3.8,8.2,7.9,10.3,2.3,1.1,4.7,1.8,7.3,2.3,6.6.9,25.8,2.5,25.4-7.9-.2-5.4-7.4-6.8-12.1-8l-19-4.6c-5.2-1.3-10-2.9-14.8-5.1-12.4-5.5-17.6-13.6-15.9-27.4,1.1-8.6,5.7-15.8,12.9-20.6,11.8-7.8,28.9-9,42.5-6.6,17,2.9,28.8,13.4,31.9,30.6h-26c-2-6.1-6.6-8.5-12.5-9.6-6-.8-15.3-.9-20.4,2.6s-3.6,4.6-2.4,7.3,8.5,4.4,11.9,5.2l19.4,4.7c4.8,1.2,9.3,2.7,13.9,4.7,8.4,3.6,15.3,9,16.8,18.6.7,4.3.6,8.6-.4,12.9Z"/>
  <path class="st0" d="M91.4,26.9v98.8s-25.7,0-25.7,0v-13.3c-2.2,2.5-4,4.6-6.2,6.7-9.3,8.4-22.6,10.5-34.5,7.6-9.5-2.3-16.9-8.7-21-17.5C1.4,103.5.3,97.6,0,91.1V27s25.7,0,25.7,0v57.5c.1,8.2,2.6,16.1,11.3,18.3,4.8,1.2,9.8,1.1,14.6-.2,10.3-2.9,14-12.6,14.1-22.6V27s25.7,0,25.7,0Z"/>
  <polygon class="st0" points="206.3 125.7 175.9 125.8 155.6 94.7 136.3 125.8 105.5 125.7 140.3 74.7 107.3 27 137.8 26.9 156.3 55.8 173.9 26.9 204.7 27 171.7 75.4 206.3 125.7"/>
</svg>