<?xml version="1.0" encoding="UTF-8"?>
<svg id="Layer_1" xmlns="http://www.w3.org/2000/svg" version="1.1" viewBox="0 0 541.3 87">
  <!-- Generator: Adobe Illustrator 30.1.0, SVG Export Plug-In . SVG Version: 2.1.1 Build 136)  -->
  <path d="M388.5,22.3L405.6,0h-99.2v63.6h-40.2c-13.4,0-29.8.3-34,.5,3.3-2.3,9.2-6.7,23.3-17.8l31.6-25.1c3.6-2.7,5.8-6.7,5.8-10.5,0-6.9-5.6-10.8-12.3-10.8h-127.3v48.3c0,12-6.4,16.8-26.8,16.8s-32.6-4.1-32.6-16.8v-14.8H26.6v-11.1h88.5L132.3,0H0v85.6h26.6v-31.4h41.3c2.7,21.8,20.8,32.8,58.6,32.8s53.4-12.9,53.4-38.8v-26h39.1c17,0,24.8-.1,29.4-.5-3.2,2.3-9.3,6.5-23.6,17.9l-31.2,24.6c-3.6,2.8-5.8,6.7-5.8,10.6,0,6.9,5.6,10.8,12.3,10.8h147.5l17-22h-31.6v-11.6h35.4l15.2-19.5h-50.7v-10.2h55.4Z"/>
  <polygon points="438.6 51.6 407.2 51.6 407.2 32.9 390.8 32.9 390.8 85.6 407.2 85.6 407.2 65.3 438.6 65.3 438.6 85.6 454.8 85.6 454.8 32.9 438.6 32.9 438.6 51.6"/>
  <path d="M513.8,63h-21.3l6.7,5.2c1.8,1.4,4.1,3.1,5.7,4.1-1.9-.2-4.3-.2-6.4-.2h-3.4c-9.7,0-15.6-3.1-15.6-12.9s5.9-13.5,22.3-13.5,22.3,2.1,22.3,13.5-1,6.9-3.6,8.8h17.5c1.5-2.4,2.3-5.5,2.3-8.8,0-18.9-12.9-27.2-38.6-27.2s-38.6,8.4-38.6,27.2,14,26.4,31.9,26.4h46.2l-27.5-22.6Z"/>
</svg>